<?xml version="1.0" encoding="utf-8"?>
<!-- Generator: Adobe Illustrator 19.0.0, SVG Export Plug-In . SVG Version: 6.00 Build 0)  -->
<svg version="1.1" id="layer" xmlns="http://www.w3.org/2000/svg" xmlns:xlink="http://www.w3.org/1999/xlink" x="0px" y="0px"
	 viewBox="-153 -46 652 652" style="enable-background:new -153 -46 652 652;" xml:space="preserve">
<style type="text/css">
	.st0{fill:#88CA8E;}
	.st1{fill:#60BD6F;}
	.st2{fill:#A3D4A5;}
	.st3{fill:#BEE0BE;}
	.st4{fill:#35B558;}
</style>
<polyline points="31.9,315.7 50.6,315.7 50.6,241 111.7,315.7 136.9,315.7 72.3,238.7 127.1,168.4 107.2,168.4 50.6,240.9 
	50.6,168.4 31.9,168.4 "/>
<g>
	<path d="M267.6,252h-19.9v47c-5.4,1.7-9.5,2.7-12.4,3.1c-2.8,0.4-5.9,0.5-9.1,0.5c-12.7,0-22.7-3-30.2-8.9
		c-7.5-5.9-12.8-13.4-16-22.4c-3.2-9-4.8-18.7-4.8-29.1c0-16.8,3.7-31.1,11.2-42.9c7.5-11.8,19.7-17.7,36.5-17.7
		c4.7,0,9.8,0.4,15.1,1.3c5.3,0.9,15.1,3.8,29.3,8.8v-18.9c-15.4-4.4-30.1-6.5-44.1-6.5c-23.3,0-40.6,7.1-51.9,21.3
		c-11.4,14.2-17.1,32.4-17.1,54.6c0,14.5,2.5,27.6,7.5,39.4c5,11.8,12.3,20.8,21.9,27c9.6,6.2,22.8,9.4,39.6,9.4
		c6.1,0,11.9-0.3,17.6-1c5.6-0.7,14.6-2.8,26.8-6.5V252z"/>
	<path class="st0" d="M299.3,170.1c0,5.5,4.5,10,10,10c5.5,0,10-4.5,10-10c0-5.5-4.5-10-10-10C303.8,160,299.3,164.5,299.3,170.1"/>
	<path class="st0" d="M299.3,199.3c0,5.5,4.5,10,10,10c5.5,0,10-4.5,10-10c0-5.5-4.5-10-10-10C303.8,189.3,299.3,193.8,299.3,199.3"
		/>
	<path class="st0" d="M299.3,228.5c0,5.5,4.5,10,10,10c5.5,0,10-4.5,10-10c0-5.5-4.5-10-10-10C303.8,218.5,299.3,223,299.3,228.5"/>
	<path class="st1" d="M299.3,257.8c0,5.5,4.5,10,10,10c5.5,0,10-4.5,10-10c0-5.5-4.5-10-10-10C303.8,247.7,299.3,252.2,299.3,257.8"
		/>
	<path class="st1" d="M299.3,287c0,5.5,4.5,10,10,10c5.5,0,10-4.5,10-10c0-5.5-4.5-10-10-10C303.8,277,299.3,281.5,299.3,287"/>
	<path class="st2" d="M328.5,170.1c0,5.5,4.5,10,10,10c5.5,0,10-4.5,10-10c0-5.5-4.5-10-10-10C333,160,328.5,164.5,328.5,170.1"/>
	<path class="st0" d="M328.5,199.3c0,5.5,4.5,10,10,10c5.5,0,10-4.5,10-10c0-5.5-4.5-10-10-10C333,189.3,328.5,193.8,328.5,199.3"/>
	<path class="st0" d="M328.5,228.5c0,5.5,4.5,10,10,10c5.5,0,10-4.5,10-10c0-5.5-4.5-10-10-10C333,218.5,328.5,223,328.5,228.5"/>
	<path class="st0" d="M328.5,257.8c0,5.5,4.5,10,10,10c5.5,0,10-4.5,10-10c0-5.5-4.5-10-10-10C333,247.7,328.5,252.2,328.5,257.8"/>
	<path class="st2" d="M357.8,170.1c0,5.5,4.5,10,10,10c5.5,0,10-4.5,10-10c0-5.5-4.5-10-10-10C362.3,160,357.8,164.5,357.8,170.1"/>
	<path class="st2" d="M357.8,199.3c0,5.5,4.5,10,10,10c5.5,0,10-4.5,10-10c0-5.5-4.5-10-10-10C362.3,189.3,357.8,193.8,357.8,199.3"
		/>
	<path class="st0" d="M357.8,228.5c0,5.5,4.5,10,10,10c5.5,0,10-4.5,10-10c0-5.5-4.5-10-10-10C362.3,218.5,357.8,223,357.8,228.5"/>
	<path class="st3" d="M387,170.1c0,5.5,4.5,10,10,10c5.5,0,10-4.5,10-10c0-5.5-4.5-10-10-10C391.5,160,387,164.5,387,170.1"/>
	<path class="st2" d="M387,199.3c0,5.5,4.5,10,10,10c5.5,0,10-4.5,10-10c0-5.5-4.5-10-10-10C391.5,189.3,387,193.8,387,199.3"/>
	<path class="st3" d="M416.2,170.1c0,5.5,4.5,10,10,10c5.5,0,10-4.5,10-10c0-5.5-4.5-10-10-10C420.7,160,416.2,164.5,416.2,170.1"/>
	<path class="st4" d="M444,170.1c0,6.4,5.2,11.5,11.5,11.5c6.4,0,11.5-5.2,11.5-11.5c0-6.4-5.2-11.5-11.5-11.5
		C449.1,158.5,444,163.7,444,170.1"/>
	<path class="st4" d="M414.7,199.3c0,6.4,5.2,11.5,11.5,11.5c6.4,0,11.5-5.1,11.5-11.5c0-6.4-5.2-11.5-11.5-11.5
		C419.9,187.8,414.7,192.9,414.7,199.3"/>
	<path class="st4" d="M385.5,228.5c0,6.4,5.2,11.5,11.5,11.5c6.4,0,11.5-5.2,11.5-11.5c0-6.4-5.2-11.5-11.5-11.5
		C390.6,217,385.5,222.2,385.5,228.5"/>
	<path class="st4" d="M356.3,257.8c0,6.4,5.2,11.5,11.5,11.5c6.4,0,11.5-5.2,11.5-11.5c0-6.4-5.2-11.5-11.5-11.5
		C361.4,246.2,356.3,251.4,356.3,257.8"/>
	<path class="st4" d="M327,287c0,6.4,5.2,11.5,11.5,11.5c6.4,0,11.5-5.1,11.5-11.5c0-6.4-5.2-11.5-11.5-11.5
		C332.2,275.5,327,280.6,327,287"/>
	<path class="st4" d="M297.8,316.2c0,6.4,5.2,11.5,11.5,11.5c6.4,0,11.5-5.2,11.5-11.5c0-6.4-5.2-11.5-11.5-11.5
		C303,304.7,297.8,309.9,297.8,316.2"/>
	<path class="st3" d="M445.5,199.3c0,5.5,4.5,10,10,10c5.5,0,10-4.5,10-10c0-5.5-4.5-10-10-10C450,189.3,445.5,193.8,445.5,199.3"/>
	<path class="st3" d="M445.5,228.5c0,5.5,4.5,10,10,10c5.5,0,10-4.5,10-10c0-5.5-4.5-10-10-10C450,218.5,445.5,223,445.5,228.5"/>
	<path class="st2" d="M416.2,228.5c0,5.5,4.5,10,10,10c5.5,0,10-4.5,10-10c0-5.5-4.5-10-10-10C420.7,218.5,416.2,223,416.2,228.5"/>
	<path class="st2" d="M445.5,257.8c0,5.5,4.5,10,10,10c5.5,0,10-4.5,10-10c0-5.5-4.5-10-10-10C450,247.7,445.5,252.2,445.5,257.8"/>
	<path class="st2" d="M416.2,257.8c0,5.5,4.5,10,10,10c5.5,0,10-4.5,10-10c0-5.5-4.5-10-10-10C420.7,247.7,416.2,252.2,416.2,257.8"
		/>
	<path class="st0" d="M387,257.8c0,5.5,4.5,10,10,10c5.5,0,10-4.5,10-10c0-5.5-4.5-10-10-10C391.5,247.7,387,252.2,387,257.8"/>
	<path class="st2" d="M445.5,287c0,5.5,4.5,10,10,10c5.5,0,10-4.5,10-10c0-5.5-4.5-10-10-10C450,277,445.5,281.5,445.5,287"/>
	<path class="st0" d="M416.2,287c0,5.5,4.5,10,10,10c5.5,0,10-4.5,10-10c0-5.5-4.5-10-10-10C420.7,277,416.2,281.5,416.2,287"/>
	<path class="st0" d="M387,287c0,5.5,4.5,10,10,10c5.5,0,10-4.5,10-10c0-5.5-4.5-10-10-10C391.5,277,387,281.5,387,287"/>
	<path class="st0" d="M357.8,287c0,5.5,4.5,10,10,10c5.5,0,10-4.5,10-10c0-5.5-4.5-10-10-10C362.3,277,357.8,281.5,357.8,287"/>
	<path class="st0" d="M445.5,316.2c0,5.5,4.5,10,10,10c5.5,0,10-4.5,10-10c0-5.5-4.5-10-10-10C450,306.2,445.5,310.7,445.5,316.2"/>
	<path class="st0" d="M416.2,316.2c0,5.5,4.5,10,10,10c5.5,0,10-4.5,10-10c0-5.5-4.5-10-10-10C420.7,306.2,416.2,310.7,416.2,316.2"
		/>
	<path class="st0" d="M387,316.2c0,5.5,4.5,10,10,10c5.5,0,10-4.5,10-10c0-5.5-4.5-10-10-10C391.5,306.2,387,310.7,387,316.2"/>
	<path class="st1" d="M357.8,316.2c0,5.5,4.5,10,10,10c5.5,0,10-4.5,10-10c0-5.5-4.5-10-10-10C362.3,306.2,357.8,310.7,357.8,316.2"
		/>
	<path class="st1" d="M328.5,316.2c0,5.5,4.5,10,10,10c5.5,0,10-4.5,10-10c0-5.5-4.5-10-10-10C333,306.2,328.5,310.7,328.5,316.2"/>
	<path d="M-84.5,317.1c17.5,0,31.2-3.5,41-10.6c9.8-7,17.2-16.4,22-28.1c4.8-11.7,7.2-24.5,7.2-38.5c0-14.8-2.6-27.5-7.9-38
		c-5.3-10.5-12.5-18.5-21.8-24c-9.3-5.5-22.9-8.2-40.8-8.2h-46.5v147.4H-84.5z M-111.4,185.3h16.3c19.1,0,32.2,2.6,39.4,7.7
		c7.2,5.1,12.4,12,15.6,20.5c3.2,8.5,4.8,18,4.8,28.3c0,11.7-1.9,22.4-5.6,32c-3.7,9.6-8.8,16.5-15.4,21c-6.6,4.4-16.5,6.6-29.7,6.6
		h-25.4V185.3z"/>
	<path d="M-102.9,391.3h-6.8l-16.5-19.1v19.1h-5v-37.8h5v18.6l15.3-18.6h5.4l-14.8,18L-102.9,391.3z M-77.5,373.6l12.6,17.7h-6.6
		l-10.8-16h-5v16h-5.3v-37.8h11.4c3.6,0,6.4,0.8,8.3,2.4c1.9,1.6,2.9,3.9,2.9,7c0,2.4-0.7,4.5-2,6.4
		C-73.2,371.2-75,372.6-77.5,373.6 M-83.8,357.6h-3.4v13.8h1.7c3.3,0,5.8-0.7,7.5-2c1.7-1.3,2.6-3.3,2.6-5.9
		C-75.3,359.5-78.1,357.6-83.8,357.6 M-32.6,387.3v4h-22.2v-37.8h21.1v4h-15.7v12.1h13.2v4h-13.2v13.7H-32.6z M-8.2,371.6
		c6.2,1.9,9.3,5.3,9.3,10.2c0,2.2-0.7,4.2-2,5.9c-1,1.3-2.3,2.2-3.7,2.7c-1.5,0.5-3.5,0.8-6.1,0.8h-11.1v-37.8h9.8
		c3.8,0,6.7,0.7,8.7,2.1c2,1.4,3,3.5,3,6.2c0,2.2-0.7,4.1-2,5.8C-3.8,369.4-5.7,370.7-8.2,371.6 M-16.6,387.3h1.1
		c3.9,0,6.5-0.2,7.6-0.7c2.2-0.9,3.3-2.7,3.3-5.2c0-2.3-1-4.1-3-5.6c-2-1.5-4.5-2.2-7.5-2.2h-1.5V387.3z M-14.5,357.6h-2.1v12.6h1.7
		c2.9,0,5.1-0.6,6.7-1.8c1.6-1.2,2.3-3,2.3-5.2C-5.9,359.4-8.8,357.6-14.5,357.6 M21.9,368.6l2.7,1.5c3.3,1.9,5.5,3.6,6.8,5.3
		c1.3,1.6,1.9,3.6,1.9,5.9c0,3.3-1.2,5.9-3.6,7.9c-2.4,2-5.6,3-9.6,3c-2.5,0-5.8-0.6-9.7-1.7v-5.3c4.3,2,7.8,3,10.5,3
		c2.1,0,3.8-0.6,5.1-1.7c1.3-1.1,1.9-2.6,1.9-4.3c0-1.5-0.4-2.7-1.3-3.8c-0.8-1-2.4-2.2-4.7-3.5l-2.6-1.5c-3.2-1.8-5.5-3.6-6.8-5.2
		c-1.3-1.6-2-3.5-2-5.7c0-2.9,1.1-5.3,3.2-7.2c2.1-1.9,4.8-2.8,8.1-2.8c2.9,0,6,0.5,9.2,1.4v4.9c-4-1.6-6.9-2.3-8.9-2.3
		c-1.9,0-3.4,0.5-4.6,1.5c-1.2,1-1.8,2.2-1.8,3.7c0,1.3,0.4,2.4,1.3,3.3C17.9,366.1,19.6,367.3,21.9,368.6 M73.8,375v15.3
		c-4.6,1.3-8.6,2-12,2c-6,0-10.6-1.7-13.8-5.1c-3.2-3.4-4.8-8.3-4.8-14.7c0-6.3,1.6-11.2,4.9-14.6c3.3-3.5,7.8-5.2,13.7-5.2
		c3.8,0,7.8,0.6,11.9,1.7v4.9c-5.2-1.8-9.2-2.6-12-2.6c-4.1,0-7.3,1.4-9.5,4.1c-2.3,2.8-3.4,6.7-3.4,11.7c0,5,1.2,8.9,3.6,11.6
		c2.4,2.8,5.8,4.2,10.1,4.2c1.8,0,3.7-0.3,5.8-0.9V375H73.8z M110,387.3v4H87.8v-37.8h21.1v4H93.2v12.1h13.2v4H93.2v13.7H110z
		 M129.9,368.6l2.7,1.5c3.3,1.9,5.5,3.6,6.8,5.3c1.3,1.6,1.9,3.6,1.9,5.9c0,3.3-1.2,5.9-3.6,7.9c-2.4,2-5.6,3-9.6,3
		c-2.5,0-5.8-0.6-9.7-1.7v-5.3c4.3,2,7.8,3,10.5,3c2.1,0,3.8-0.6,5.1-1.7c1.3-1.1,1.9-2.6,1.9-4.3c0-1.5-0.4-2.7-1.3-3.8
		c-0.8-1-2.4-2.2-4.7-3.5l-2.6-1.5c-3.2-1.8-5.5-3.6-6.8-5.2c-1.3-1.6-2-3.5-2-5.7c0-2.9,1.1-5.3,3.2-7.2c2.1-1.9,4.8-2.8,8.1-2.8
		c2.9,0,6,0.5,9.2,1.4v4.9c-4-1.6-6.9-2.3-8.9-2.3c-1.9,0-3.4,0.5-4.6,1.5c-1.2,1-1.8,2.2-1.8,3.7c0,1.3,0.4,2.4,1.3,3.3
		C126,366.1,127.6,367.3,129.9,368.6 M175.7,387.3v4h-22.2v-37.8h21.1v4h-15.7v12.1H172v4h-13.2v13.7H175.7z M186.4,391.3v-37.8h5.4
		v33.8h17v4H186.4z M218.8,391.3v-37.8h5.4v33.8h17v4H218.8z M260.5,368.6l2.7,1.5c3.3,1.9,5.5,3.6,6.8,5.3c1.3,1.6,1.9,3.6,1.9,5.9
		c0,3.3-1.2,5.9-3.6,7.9c-2.4,2-5.6,3-9.6,3c-2.6,0-5.8-0.6-9.7-1.7v-5.3c4.3,2,7.8,3,10.5,3c2.1,0,3.8-0.6,5.1-1.7
		c1.3-1.1,1.9-2.6,1.9-4.3c0-1.5-0.4-2.7-1.3-3.8c-0.8-1-2.4-2.2-4.7-3.5l-2.6-1.5c-3.2-1.8-5.5-3.6-6.8-5.2c-1.3-1.6-2-3.5-2-5.7
		c0-2.9,1.1-5.3,3.2-7.2c2.1-1.9,4.8-2.8,8.1-2.8c2.9,0,6,0.5,9.2,1.4v4.9c-4-1.6-7-2.3-8.9-2.3c-1.8,0-3.4,0.5-4.6,1.5
		c-1.2,1-1.8,2.2-1.8,3.7c0,1.3,0.4,2.4,1.3,3.3C256.5,366.1,258.1,367.3,260.5,368.6 M300.9,388.1c3.6,0,7.4-1.1,11.5-3.3v4.6
		c-3.7,1.9-7.8,2.9-12.2,2.9c-5.9,0-10.4-1.7-13.6-5.1c-3.2-3.4-4.8-8.3-4.8-14.6c0-6.3,1.6-11.2,4.9-14.7c3.3-3.5,7.9-5.2,13.8-5.2
		c3.4,0,7.3,0.6,11.9,1.7v5c-5.2-1.8-9.2-2.7-12-2.7c-4.1,0-7.3,1.4-9.5,4.2c-2.2,2.8-3.4,6.7-3.4,11.7c0,4.8,1.2,8.6,3.6,11.4
		C293.5,386.7,296.8,388.1,300.9,388.1 M348.1,391.3v-17.8h-18v17.8h-5.4v-37.8h5.4v15.9h18v-15.9h5.4v37.8H348.1z M392.6,391.3
		l-4.1-10.4h-16l-4.2,10.4h-5l15-37.8h5.3l14.7,37.8H392.6z M380.5,360.6l-6.5,16.3h12.9L380.5,360.6z M413.8,357.6v12.7H427v4
		h-13.2v17.1h-5.4v-37.8h21.1v4H413.8z M455.4,357.6v33.8H450v-33.8h-13.4v-4h32.1v4H455.4z"/>
</g>
</svg>
