<?xml version="1.0" encoding="utf-8"?>
<!-- Generator: Adobe Illustrator 19.2.1, SVG Export Plug-In . SVG Version: 6.00 Build 0)  -->
<svg version="1.1" id="layer" xmlns="http://www.w3.org/2000/svg" xmlns:xlink="http://www.w3.org/1999/xlink" x="0px" y="0px"
	 viewBox="0 0 652 652" style="enable-background:new 0 0 652 652;" xml:space="preserve">
<style type="text/css">
	.st0{fill:#464B66;}
	.st1{clip-path:url(#SVGID_2_);fill:url(#SVGID_3_);}
	.st2{clip-path:url(#SVGID_5_);fill:url(#SVGID_6_);}
	.st3{fill:none;stroke:#464B66;stroke-width:1.7139;stroke-miterlimit:10;}
</style>
<path class="st0" d="M3.1,393.9v28.6h-68.8v37.4H-13v27.5h-52.7v38.2H3.1v28.6h-107.9V393.9H3.1z M34.4,393.9v160.5h39.1v-62.5h57.3
	v-28.7H73.5v-40.6h68.8v-28.6H34.4z M317.7,474c0-11.5-1.9-22.3-5.7-32.3c-3.8-10-9.2-18.7-16.2-26c-6.9-7.3-15.3-13.1-25.1-17.3
	c-9.8-4.2-20.6-6.3-32.6-6.3c-11.9,0-22.8,2.1-32.6,6.3c-9.8,4.2-18.2,9.9-25.2,17.3c-7,7.3-12.4,16-16.2,26
	c-3.8,10-5.7,20.8-5.7,32.4c0,11.6,1.9,22.4,5.7,32.4c3.8,10,9.2,18.7,16.2,26.1c7,7.4,15.4,13.2,25.2,17.3
	c9.8,4.2,20.7,6.3,32.6,6.3c3.3,0,6.6-0.2,9.8-0.5c3.2-0.4,6.3-0.9,9.4-1.5l7.7,10.1c2.7,3.2,5.7,5.4,9.2,6.4
	c3.4,1.1,7.3,1.6,11.5,1.6H315L287.5,540c4.8-3.7,9-7.9,12.8-12.7c3.7-4.8,6.9-9.9,9.5-15.5c2.6-5.6,4.5-11.6,5.9-17.9
	C317,487.6,317.7,481,317.7,474 M279.7,474c0,7.7-0.9,14.7-2.8,20.8c-1.9,6.1-4.6,11.3-8.2,15.6c-3.6,4.2-7.9,7.5-13,9.7
	c-5.2,2.2-11,3.3-17.6,3.3c-6.6,0-12.5-1.1-17.7-3.3c-5.2-2.2-9.5-5.5-13.1-9.7c-3.5-4.3-6.3-9.4-8.2-15.6c-1.9-6.1-2.8-13-2.8-20.8
	c0-7.6,1-14.5,2.8-20.6c1.9-6.1,4.6-11.3,8.2-15.6c3.6-4.3,7.9-7.5,13.1-9.8c5.2-2.3,11.1-3.4,17.7-3.4c6.6,0,12.4,1.1,17.6,3.4
	c5.1,2.3,9.5,5.5,13,9.8c3.5,4.3,6.3,9.4,8.2,15.6C278.8,459.5,279.7,466.4,279.7,474 M520.8,393.9h-32.7c-1.3,0-2.6,0.2-3.6,0.7
	c-1.1,0.4-2,1.1-2.9,2c-0.8,0.9-1.6,2-2.4,3.6l-39.7,81.1c-1.4,2.9-2.8,5.9-4.2,8.9c-0.9,2.1-1.8,4.3-2.7,6.4
	c-0.8-2.1-1.7-4.3-2.6-6.3c-1.3-3-2.7-6-4.1-8.7l-39.9-81.5c-0.8-1.5-1.6-2.7-2.4-3.5c-0.9-0.9-1.9-1.6-2.9-2
	c-1.1-0.4-2.3-0.7-3.6-0.7h-32.7v160.5h34.2v-91.2c0-2.1-0.1-4.5-0.2-7c0-0.4,0-0.8-0.1-1.2l38.3,76.7c1.4,2.8,3.2,4.9,5.6,6.3
	c2.4,1.4,5.1,2.2,8.1,2.2h4.9c3,0,5.7-0.7,8.1-2.2c2.3-1.5,4.2-3.6,5.6-6.3l38.2-76.9c-0.1,2.9-0.2,5.8-0.2,8.4v91.2h34.2V393.9z"/>
<g>
	<defs>
		<path id="SVGID_1_" d="M435.5,160.9c-11.6,0.8-20.8,7.2-26.5,18.6c-4.8,9.5-10.2,25.3-13.7,81.1c0,0,0,0,0,0.1c0,0.9,0,1.6,0,2.5
			l-0.1,3.2l22.4-5.6v-3c0.3-15.7,4.2-45.9,5.2-51.6c2.5-14.5,8.4-23.3,16.1-24.2c7.4-0.8,16.1,4.2,22.1,8.5
			c1.1,0.8,5.5,4.1,12.1,9.1C504.2,223.2,586.9,285.6,617,304c39.1,23.8,63.9,36.5,83.9,36.5c2,0,4-0.1,5.9-0.4
			c14.6-2,23.9-10.8,29.4-27.6c6-18.6,12.5-59.8,11.9-85.1l0-3l-32.1-0.8v3.4c0,27-4.4,72.2-16.2,78.9c-23,12.9-169-89.8-217-123.6
			c-7.6-5.3-13.4-9.4-16.8-11.7c-9.2-6.3-19.2-9.7-28.2-9.7C437,160.8,436.2,160.9,435.5,160.9"/>
	</defs>
	<clipPath id="SVGID_2_">
		<use xlink:href="#SVGID_1_"  style="overflow:visible;"/>
	</clipPath>
	
		<linearGradient id="SVGID_3_" gradientUnits="userSpaceOnUse" x1="23.6641" y1="762.7843" x2="35.0901" y2="762.7843" gradientTransform="matrix(25.3998 0 0 -25.3998 -179.595 19625.2598)">
		<stop  offset="0" style="stop-color:#69B9E8"/>
		<stop  offset="4.721090e-002" style="stop-color:#56ACDD"/>
		<stop  offset="0.1428" style="stop-color:#248CBF"/>
		<stop  offset="0.2" style="stop-color:#0376AC"/>
		<stop  offset="0.2623" style="stop-color:#0F5E94"/>
		<stop  offset="0.3496" style="stop-color:#1D4278"/>
		<stop  offset="0.4" style="stop-color:#22376D"/>
		<stop  offset="0.4464" style="stop-color:#1E3F75"/>
		<stop  offset="0.5192" style="stop-color:#13568C"/>
		<stop  offset="0.6" style="stop-color:#0376AC"/>
		<stop  offset="0.6482" style="stop-color:#2A8C96"/>
		<stop  offset="0.75" style="stop-color:#86C062"/>
		<stop  offset="1" style="stop-color:#86C062"/>
	</linearGradient>
	<rect x="395.2" y="160.8" class="st1" width="353.5" height="179.7"/>
</g>
<g>
	<defs>
		<path id="SVGID_4_" d="M677.3,72.1c-20.5,0-43.1,16.6-73,43.3l-0.1,0.1c-57.8,57.9-139.8,136.1-168.7,161
			c-5.1,4.4-10.3,6.7-13.4,6c-0.9-0.2-2.1-0.8-3-3.1c-1.1-2.9-1.5-12.3-1.6-18.6c-0.1-3.8,0.1-6.2,0.1-6.2l-22.4,6l-0.2,10.9
			c0,19.2,2.5,25.3,7.3,29.2c4.1,3.4,9.1,5.4,14.8,5.4c4.7,0,9.9-1.4,15.8-4.2c17.6-8.5,131.6-100.7,169.4-137
			c40.5-38.8,67.4-59.2,85-48.2c20.6,12.8,30.3,48.2,28.7,105.3c-0.1,2.4-0.1,3.5-0.1,5v2.4l32.1,0.6l-0.1-2.6
			C748.1,180.8,741.2,72.1,677.3,72.1L677.3,72.1z"/>
	</defs>
	<clipPath id="SVGID_5_">
		<use xlink:href="#SVGID_4_"  style="overflow:visible;"/>
	</clipPath>
	
		<linearGradient id="SVGID_6_" gradientUnits="userSpaceOnUse" x1="23.6151" y1="764.9952" x2="35.0411" y2="764.9952" gradientTransform="matrix(25.3956 0 0 -25.3956 -179.5856 19616.7422)">
		<stop  offset="0" style="stop-color:#69B9E8"/>
		<stop  offset="0.5" style="stop-color:#69B9E8"/>
		<stop  offset="0.5459" style="stop-color:#6DBAD5"/>
		<stop  offset="0.639" style="stop-color:#78BDA4"/>
		<stop  offset="0.75" style="stop-color:#86C062"/>
		<stop  offset="1" style="stop-color:#86C062"/>
	</linearGradient>
	<rect x="395.1" y="72.1" class="st2" width="353.1" height="234.2"/>
</g>
<path class="st0" d="M545.3,401.6v3.6h-1.7V396h2.8c0.6,0,1.2,0.1,1.6,0.2c0.4,0.1,0.8,0.3,1.1,0.5c0.3,0.2,0.5,0.5,0.6,0.8
	c0.1,0.3,0.2,0.7,0.2,1.1c0,0.3,0,0.6-0.1,0.9c-0.1,0.3-0.2,0.5-0.4,0.7c-0.2,0.2-0.4,0.4-0.6,0.6c-0.2,0.2-0.5,0.3-0.9,0.4
	c0.2,0.1,0.4,0.3,0.6,0.5l2.3,3.4h-1.5c-0.2,0-0.3,0-0.4-0.1c-0.1-0.1-0.2-0.1-0.3-0.3l-1.9-2.9c-0.1-0.1-0.2-0.2-0.2-0.2
	c-0.1,0-0.2-0.1-0.4-0.1H545.3z M545.3,400.4h1.1c0.3,0,0.6,0,0.8-0.1c0.2-0.1,0.4-0.2,0.6-0.3c0.2-0.1,0.3-0.3,0.3-0.5
	c0.1-0.2,0.1-0.4,0.1-0.6c0-0.5-0.2-0.8-0.5-1.1c-0.3-0.3-0.8-0.4-1.4-0.4h-1.1V400.4z"/>
<path class="st3" d="M555.9,400.3c0,4.9-4,9-9,9c-4.9,0-9-4-9-9c0-4.9,4-9,9-9C551.9,391.3,555.9,395.3,555.9,400.3z"/>
</svg>
