<svg width="28" height="28" viewBox="0 0 28 28" fill="none" xmlns="http://www.w3.org/2000/svg">
<path d="M11.52 13.806C11.52 12.4181 12.6455 11.2928 14.0342 11.2928C15.4229 11.2928 16.5489 12.4181 16.5489 13.806C16.5489 15.1939 15.4229 16.3193 14.0342 16.3193C12.6455 16.3193 11.52 15.1939 11.52 13.806ZM10.1606 13.806C10.1606 15.9441 11.8948 17.6773 14.0342 17.6773C16.1736 17.6773 17.9078 15.9441 17.9078 13.806C17.9078 11.6679 16.1736 9.93474 14.0342 9.93474C11.8948 9.93474 10.1606 11.6679 10.1606 13.806ZM17.1559 9.78125C17.1558 9.96018 17.2088 10.1351 17.3082 10.2839C17.4076 10.4327 17.549 10.5488 17.7144 10.6173C17.8797 10.6858 18.0618 10.7038 18.2374 10.669C18.413 10.6342 18.5743 10.5481 18.701 10.4216C18.8276 10.2951 18.9139 10.1339 18.9489 9.95846C18.9839 9.78298 18.966 9.60107 18.8976 9.43573C18.8291 9.27039 18.7132 9.12905 18.5643 9.02958C18.4155 8.93011 18.2405 8.87698 18.0615 8.87691H18.0611C17.8211 8.87702 17.591 8.97232 17.4213 9.14188C17.2515 9.31144 17.1561 9.5414 17.1559 9.78125ZM10.9865 19.9427C10.251 19.9092 9.85128 19.7868 9.58563 19.6834C9.23343 19.5463 8.98213 19.3831 8.71792 19.1194C8.45371 18.8558 8.29016 18.6049 8.15365 18.2529C8.05009 17.9875 7.92758 17.5878 7.89415 16.8528C7.85758 16.0581 7.85027 15.8194 7.85027 13.8061C7.85027 11.7928 7.85818 11.5547 7.89415 10.7593C7.92764 10.0243 8.05106 9.62546 8.15365 9.35929C8.29077 9.0073 8.45407 8.75616 8.71792 8.49211C8.98177 8.22806 9.23282 8.06461 9.58563 7.92818C9.85116 7.82468 10.251 7.70224 10.9865 7.66883C11.7817 7.63228 12.0205 7.62498 14.0342 7.62498C16.0478 7.62498 16.2869 7.63288 17.0827 7.66883C17.8182 7.7023 18.2173 7.82564 18.4836 7.92818C18.8358 8.06461 19.0871 8.22842 19.3513 8.49211C19.6155 8.7558 19.7785 9.0073 19.9156 9.35929C20.0192 9.62467 20.1417 10.0243 20.1751 10.7593C20.2117 11.5547 20.219 11.7928 20.219 13.8061C20.219 15.8194 20.2117 16.0575 20.1751 16.8528C20.1416 17.5878 20.0185 17.9874 19.9156 18.2529C19.7785 18.6049 19.6152 18.856 19.3513 19.1194C19.0875 19.3829 18.8358 19.5463 18.4836 19.6834C18.2181 19.7869 17.8182 19.9093 17.0827 19.9427C16.2876 19.9793 16.0487 19.9866 14.0342 19.9866C12.0196 19.9866 11.7814 19.9793 10.9865 19.9427ZM10.9241 6.3125C10.121 6.34905 9.57223 6.47631 9.09299 6.66268C8.59668 6.85514 8.17652 7.11334 7.75667 7.53228C7.33682 7.95122 7.07913 8.37178 6.88655 8.8678C6.70007 9.34705 6.57273 9.89518 6.53616 10.6978C6.49899 11.5016 6.49048 11.7586 6.49048 13.806C6.49048 15.8534 6.49899 16.1104 6.53616 16.9143C6.57273 17.7169 6.70007 18.265 6.88655 18.7442C7.07913 19.24 7.33688 19.661 7.75667 20.0798C8.17646 20.4985 8.59668 20.7563 9.09299 20.9494C9.57313 21.1357 10.121 21.263 10.9241 21.2995C11.7288 21.3361 11.9855 21.3452 14.0342 21.3452C16.0828 21.3452 16.3399 21.3367 17.1443 21.2995C17.9474 21.263 18.4958 21.1357 18.9754 20.9494C19.4714 20.7563 19.8918 20.4987 20.3117 20.0798C20.7315 19.6608 20.9887 19.24 21.1818 18.7442C21.3683 18.265 21.4962 17.7169 21.5322 16.9143C21.5688 16.1098 21.5773 15.8534 21.5773 13.806C21.5773 11.7586 21.5688 11.5016 21.5322 10.6978C21.4956 9.89512 21.3683 9.34675 21.1818 8.8678C20.9887 8.37208 20.7309 7.95188 20.3117 7.53228C19.8925 7.11268 19.4714 6.85514 18.976 6.66268C18.4958 6.47631 17.9474 6.34845 17.1449 6.3125C16.3406 6.27595 16.0834 6.26685 14.0348 6.26685C11.9862 6.26685 11.7288 6.27535 10.9241 6.3125Z" fill="url(#paint0_radial_3538_2300)"/>
<path d="M11.52 13.806C11.52 12.4181 12.6455 11.2928 14.0342 11.2928C15.4229 11.2928 16.5489 12.4181 16.5489 13.806C16.5489 15.1939 15.4229 16.3193 14.0342 16.3193C12.6455 16.3193 11.52 15.1939 11.52 13.806ZM10.1606 13.806C10.1606 15.9441 11.8948 17.6773 14.0342 17.6773C16.1736 17.6773 17.9078 15.9441 17.9078 13.806C17.9078 11.6679 16.1736 9.93474 14.0342 9.93474C11.8948 9.93474 10.1606 11.6679 10.1606 13.806ZM17.1559 9.78125C17.1558 9.96018 17.2088 10.1351 17.3082 10.2839C17.4076 10.4327 17.549 10.5488 17.7144 10.6173C17.8797 10.6858 18.0618 10.7038 18.2374 10.669C18.413 10.6342 18.5743 10.5481 18.701 10.4216C18.8276 10.2951 18.9139 10.1339 18.9489 9.95846C18.9839 9.78298 18.966 9.60107 18.8976 9.43573C18.8291 9.27039 18.7132 9.12905 18.5643 9.02958C18.4155 8.93011 18.2405 8.87698 18.0615 8.87691H18.0611C17.8211 8.87702 17.591 8.97232 17.4213 9.14188C17.2515 9.31144 17.1561 9.5414 17.1559 9.78125ZM10.9865 19.9427C10.251 19.9092 9.85128 19.7868 9.58563 19.6834C9.23343 19.5463 8.98213 19.3831 8.71792 19.1194C8.45371 18.8558 8.29016 18.6049 8.15365 18.2529C8.05009 17.9875 7.92758 17.5878 7.89415 16.8528C7.85758 16.0581 7.85027 15.8194 7.85027 13.8061C7.85027 11.7928 7.85818 11.5547 7.89415 10.7593C7.92764 10.0243 8.05106 9.62546 8.15365 9.35929C8.29077 9.0073 8.45407 8.75616 8.71792 8.49211C8.98177 8.22806 9.23282 8.06461 9.58563 7.92818C9.85116 7.82468 10.251 7.70224 10.9865 7.66883C11.7817 7.63228 12.0205 7.62498 14.0342 7.62498C16.0478 7.62498 16.2869 7.63288 17.0827 7.66883C17.8182 7.7023 18.2173 7.82564 18.4836 7.92818C18.8358 8.06461 19.0871 8.22842 19.3513 8.49211C19.6155 8.7558 19.7785 9.0073 19.9156 9.35929C20.0192 9.62467 20.1417 10.0243 20.1751 10.7593C20.2117 11.5547 20.219 11.7928 20.219 13.8061C20.219 15.8194 20.2117 16.0575 20.1751 16.8528C20.1416 17.5878 20.0185 17.9874 19.9156 18.2529C19.7785 18.6049 19.6152 18.856 19.3513 19.1194C19.0875 19.3829 18.8358 19.5463 18.4836 19.6834C18.2181 19.7869 17.8182 19.9093 17.0827 19.9427C16.2876 19.9793 16.0487 19.9866 14.0342 19.9866C12.0196 19.9866 11.7814 19.9793 10.9865 19.9427ZM10.9241 6.3125C10.121 6.34905 9.57223 6.47631 9.09299 6.66268C8.59668 6.85514 8.17652 7.11334 7.75667 7.53228C7.33682 7.95122 7.07913 8.37178 6.88655 8.8678C6.70007 9.34705 6.57273 9.89518 6.53616 10.6978C6.49899 11.5016 6.49048 11.7586 6.49048 13.806C6.49048 15.8534 6.49899 16.1104 6.53616 16.9143C6.57273 17.7169 6.70007 18.265 6.88655 18.7442C7.07913 19.24 7.33688 19.661 7.75667 20.0798C8.17646 20.4985 8.59668 20.7563 9.09299 20.9494C9.57313 21.1357 10.121 21.263 10.9241 21.2995C11.7288 21.3361 11.9855 21.3452 14.0342 21.3452C16.0828 21.3452 16.3399 21.3367 17.1443 21.2995C17.9474 21.263 18.4958 21.1357 18.9754 20.9494C19.4714 20.7563 19.8918 20.4987 20.3117 20.0798C20.7315 19.6608 20.9887 19.24 21.1818 18.7442C21.3683 18.265 21.4962 17.7169 21.5322 16.9143C21.5688 16.1098 21.5773 15.8534 21.5773 13.806C21.5773 11.7586 21.5688 11.5016 21.5322 10.6978C21.4956 9.89512 21.3683 9.34675 21.1818 8.8678C20.9887 8.37208 20.7309 7.95188 20.3117 7.53228C19.8925 7.11268 19.4714 6.85514 18.976 6.66268C18.4958 6.47631 17.9474 6.34845 17.1449 6.3125C16.3406 6.27595 16.0834 6.26685 14.0348 6.26685C11.9862 6.26685 11.7288 6.27535 10.9241 6.3125Z" fill="url(#paint1_radial_3538_2300)"/>
<defs>
<radialGradient id="paint0_radial_3538_2300" cx="0" cy="0" r="1" gradientUnits="userSpaceOnUse" gradientTransform="translate(8.49493 21.4164) scale(19.6953 19.6835)">
<stop offset="0.09" stop-color="white"/>
<stop offset="0.78" stop-color="white"/>
</radialGradient>
<radialGradient id="paint1_radial_3538_2300" cx="0" cy="0" r="1" gradientUnits="userSpaceOnUse" gradientTransform="translate(15.6403 22.0919) scale(15.5226 15.5133)">
<stop offset="0.64" stop-color="white" stop-opacity="0"/>
<stop offset="1" stop-color="white"/>
</radialGradient>
</defs>
</svg>
