<svg version="1.1" id="Layer_1" xmlns="http://www.w3.org/2000/svg" xmlns:xlink="http://www.w3.org/1999/xlink" x="0px" y="0px" viewBox="0 0 457.1 254.7" style="enable-background:new 0 0 457.1 254.7;" xml:space="preserve">
<style type="text/css">
	.st0{enable-background:new    ;}
	.st1{fill:#1D1B30;}
	.st2{fill:#F59D08;}
</style>
<g id="Layer_2_00000033349444143726595140000017371470992128850578_">
	<g id="Layer_1-2">
		<g class="st0">
			<path class="st1" d="M117.6,100.9h13.4v65.3h-13.4V100.9z"></path>
		</g>
		<g class="st0">
			<path class="st1" d="M157.5,153.3l10.9-6.3c2.9,4.7,6.6,8.2,13.2,8.2c5.6,0,9.1-2.8,9.1-6.6c0-4.6-3.6-6.2-9.8-8.9l-3.4-1.4
				c-9.7-4.1-16.1-9.3-16.1-20.3c0-10.1,7.7-17.8,19.7-17.8c8.5,0,14.7,3,19.1,10.8l-10.5,6.7c-2.3-4.1-4.8-5.8-8.6-5.8
				c-3.9,0-6.4,2.5-6.4,5.8c0,4,2.5,5.7,8.3,8.2l3.4,1.4c11.4,4.9,17.9,9.9,17.9,21.1c0,12.1-9.5,18.7-22.3,18.7
				C169.5,167.1,161.4,161.1,157.5,153.3z"></path>
		</g>
		<g class="st0">
			<path class="st1" d="M254.9,100.3h1.2l29.9,65.9h-14.1l-3.1-7.4h-26.5l-3.1,7.4h-13L254.9,100.3z M263.9,147.6l-4.7-11.3
				c-1.9-4.6-3.9-11.7-3.9-11.7s-1.9,7.1-3.8,11.7l-4.7,11.3H263.9z"></path>
			<path class="st1" d="M313,100.9h18c18.2,0,29.2,9.5,29.2,25.2c0,15.7-11,25.2-29.2,25.2h-4.6v14.9H313V100.9z M330.7,139.5
				c10.9,0,15.7-4.4,15.7-13.3c0-9-5-13.4-15.7-13.4h-4.2v26.8H330.7z"></path>
			<path class="st1" d="M383.3,153.3l10.9-6.3c2.9,4.7,6.6,8.2,13.2,8.2c5.6,0,9.1-2.8,9.1-6.6c0-4.6-3.6-6.2-9.8-8.9l-3.4-1.4
				c-9.7-4.1-16.1-9.3-16.1-20.3c0-10.1,7.7-17.8,19.7-17.8c8.5,0,14.7,3,19.1,10.8l-10.5,6.7c-2.3-4.1-4.8-5.8-8.6-5.8
				c-3.9,0-6.4,2.5-6.4,5.8c0,4,2.5,5.7,8.3,8.2l3.4,1.4c11.4,4.9,17.9,9.9,17.9,21.1c0,12.1-9.5,18.7-22.3,18.7
				C395.3,167.1,387.2,161.1,383.3,153.3z"></path>
		</g>
		<path class="st2" d="M230.7,182.9c-5.4,10.1-12.3,19.3-20.4,27.4c-45.8,45.8-120.1,45.8-165.9,0s-45.8-120.1,0-165.8
			c45.9-45.8,120.2-45.8,166,0.1c11,11,19.7,24.1,25.6,38.5l9.3-3.8c-26.6-65.1-100.9-96.4-166-69.8s-96.4,100.9-69.8,166
			s100.9,96.4,166,69.8c27.5-11.2,50.2-31.7,64.2-57.9L230.7,182.9z"></path>
		<g class="st0">
			<path d="M433.1,108.8c0-4.4,3.5-7.7,7.8-7.7c4.3,0,7.9,3.3,7.9,7.7c0,4.4-3.6,7.7-7.9,7.7C436.6,116.4,433.1,113.2,433.1,108.8z
				 M447.5,108.8c0-4-2.8-6.7-6.7-6.7c-3.8,0-6.5,2.7-6.5,6.7c0,3.9,2.7,6.6,6.5,6.6C444.7,115.4,447.5,112.7,447.5,108.8z
				 M444.3,113.1h-1.4l-1.6-2.2c-0.3,0-0.5,0.1-0.8,0.1h-1.1v2.2h-1.2v-8.9h2.3c2.7,0,3.8,1.5,3.8,3.4c0,1.3-0.6,2.3-1.9,2.9
				L444.3,113.1z M440.4,110c2,0,2.7-0.9,2.7-2.3s-0.6-2.4-2.7-2.4h-1v4.8H440.4z"></path>
		</g>
	</g>
</g>
</svg>