<svg width="14" height="15" viewBox="0 0 14 15" fill="none" xmlns="http://www.w3.org/2000/svg">
<path d="M7.95334 13.6531C7.66932 13.9184 7.28971 14.0667 6.89464 14.0667C6.49957 14.0667 6.11996 13.9184 5.83595 13.6531C3.23512 11.209 -0.250319 8.47865 1.44942 4.51471C2.36846 2.37145 4.57455 1 6.89464 1C9.21473 1 11.4208 2.37145 12.3399 4.51471C14.0375 8.47365 10.5606 11.2174 7.95334 13.6531Z" fill="white"/>
<path d="M9.186 6.87996C9.186 8.14285 8.15981 9.16663 6.89393 9.16663C5.62805 9.16663 4.60185 8.14285 4.60185 6.87996C4.60185 5.61707 5.62805 4.5933 6.89393 4.5933C8.15981 4.5933 9.186 5.61707 9.186 6.87996Z" fill="white"/>
<path d="M7.95334 13.6531C7.66932 13.9184 7.28971 14.0667 6.89464 14.0667C6.49957 14.0667 6.11996 13.9184 5.83595 13.6531C3.23512 11.209 -0.250319 8.47865 1.44942 4.51471C2.36846 2.37145 4.57455 1 6.89464 1C9.21473 1 11.4208 2.37145 12.3399 4.51471C14.0375 8.47365 10.5606 11.2174 7.95334 13.6531Z" stroke="#5282FF" stroke-width="1.06909"/>
<path d="M9.186 6.87996C9.186 8.14285 8.15981 9.16663 6.89393 9.16663C5.62805 9.16663 4.60185 8.14285 4.60185 6.87996C4.60185 5.61707 5.62805 4.5933 6.89393 4.5933C8.15981 4.5933 9.186 5.61707 9.186 6.87996Z" stroke="#5282FF" stroke-width="1.06909"/>
</svg>
