<svg width="29" height="28" viewBox="0 0 29 28" fill="none" xmlns="http://www.w3.org/2000/svg">
<path fill-rule="evenodd" clip-rule="evenodd" d="M22.5881 9.63644C22.7042 9.27176 22.5881 9.00378 22.0354 9.00378H20.2078C19.7431 9.00378 19.5289 9.23527 19.4127 9.49054C19.4127 9.49054 18.4833 11.6239 17.1667 13.0097C16.7407 13.4108 16.5471 13.5385 16.3147 13.5385C16.1986 13.5385 16.0304 13.4108 16.0304 13.0462V9.63644C16.0304 9.19882 15.8956 9.00378 15.5083 9.00378H12.6363C12.346 9.00378 12.1713 9.2069 12.1713 9.39939C12.1713 9.81425 12.8296 9.90992 12.8974 11.0769V13.6114C12.8974 14.1671 12.7909 14.2679 12.5585 14.2679C11.939 14.2679 10.4319 12.125 9.53802 9.6729C9.36285 9.1963 9.18716 9.00378 8.72007 9.00378H6.89248C6.37031 9.00378 6.26587 9.23527 6.26587 9.49054C6.26587 9.9464 6.88546 12.2074 9.15081 15.1978C10.661 17.24 12.7888 18.347 14.725 18.347C15.8867 18.347 16.0304 18.1011 16.0304 17.6776V16.1341C16.0304 15.6424 16.1405 15.5442 16.5084 15.5442C16.7794 15.5442 17.2441 15.6719 18.3284 16.6565C19.5676 17.8235 19.7719 18.347 20.4689 18.347H22.2965C22.8187 18.347 23.0797 18.1011 22.9291 17.6159C22.7643 17.1323 22.1727 16.4306 21.3876 15.5989C20.9616 15.1248 20.3227 14.6143 20.1291 14.359C19.858 14.0308 19.9355 13.8849 20.1291 13.5932C20.1291 13.5932 22.3557 10.6393 22.5881 9.63644Z" fill="white"/>
</svg>
